<svg aria-hidden="true" style="position: absolute; width: 0; height: 0; overflow: hidden;" version="1.1" xmlns="http://www.w3.org/2000/svg" xmlns:xlink="http://www.w3.org/1999/xlink">
<defs>
<symbol id="icon-close" viewBox="0 0 32 32">
<path d="M26.667 7.303l-1.97-1.97-7.808 7.808-7.808-7.808-1.97 1.97 7.808 7.808-7.808 7.808 1.97 1.97 7.808-7.808 7.808 7.808 1.97-1.97-7.808-7.808 7.808-7.808z"></path>
</symbol>
<symbol id="icon-envelope" viewBox="0 0 43 32">
<path d="M38.682-0.006h-34.68c-2.206 0-4.002 1.795-4.002 4.002v24.009c0 2.206 1.795 4.002 4.002 4.002h34.68c2.206 0 4.002-1.795 4.002-4.002v-24.009c0-2.206-1.795-4.002-4.002-4.002zM38.682 2.661c0.181 0 0.355 0.037 0.512 0.104l-17.852 15.473-17.852-15.473c0.151-0.065 0.327-0.104 0.512-0.104h34.68zM38.682 29.339h-34.68c-0.737 0-1.334-0.597-1.334-1.334v0-22.422l17.799 15.427c0.233 0.203 0.539 0.327 0.875 0.327s0.642-0.124 0.877-0.328l-0.002 0.001 17.799-15.427v22.422c0 0.737-0.597 1.334-1.334 1.334v0z"></path>
</symbol>
<symbol id="icon-smartphone" viewBox="0 0 20 32">
<path d="M17.009 0h-14.005c-1.655 0-3.001 1.347-3.001 3.001v26.010c0 1.655 1.347 3.001 3.001 3.001h14.005c1.655 0 3.001-1.347 3.001-3.001v-26.010c0-1.655-1.347-3.001-3.001-3.001zM3.004 2.001h14.005c0.552 0 1 0.448 1 1v0 21.008h-16.006v-21.008c0-0.553 0.448-1 1-1v0zM17.009 30.012h-14.005c-0.553 0-1-0.448-1-1v0-3.001h16.006v3.001c0 0.552-0.448 1-1 1v0z"></path>
<path d="M4.712 27.489c0.18 0.164 0.293 0.399 0.293 0.66s-0.113 0.497-0.292 0.66l-0.001 0.001c-0.186 0.17-0.435 0.275-0.708 0.275s-0.522-0.104-0.709-0.275l0.001 0.001c-0.18-0.164-0.293-0.399-0.293-0.66s0.113-0.497 0.292-0.66l0.001-0.001c0.186-0.17 0.435-0.275 0.708-0.275s0.522 0.104 0.709 0.275l-0.001-0.001z"></path>
</symbol>
</defs>
</svg>
